<?xml version="1.0" encoding="UTF-8" standalone="no"?>
<!DOCTYPE svg PUBLIC "-//W3C//DTD SVG 1.1//EN"
 "http://www.w3.org/Graphics/SVG/1.1/DTD/svg11.dtd">
<!-- Generated by graphviz version 2.43.0 (0)
 -->
<!-- Title: Tree Pages: 1 -->
<svg width="2332pt" height="474pt"
 viewBox="0.00 0.00 2332.07 474.00" xmlns="http://www.w3.org/2000/svg" xmlns:xlink="http://www.w3.org/1999/xlink">
<g id="graph0" class="graph" transform="scale(1 1) rotate(0) translate(4 470)">
<title>Tree</title>
<polygon fill="white" stroke="transparent" points="-4,4 -4,-470 2328.07,-470 2328.07,4 -4,4"/>
<!-- 0 -->
<g id="node1" class="node">
<title>0</title>
<path fill="#fae6d7" stroke="black" d="M1060.26,-466C1060.26,-466 936.91,-466 936.91,-466 930.91,-466 924.91,-460 924.91,-454 924.91,-454 924.91,-428 924.91,-428 924.91,-422 930.91,-416 936.91,-416 936.91,-416 1060.26,-416 1060.26,-416 1066.26,-416 1072.26,-422 1072.26,-428 1072.26,-428 1072.26,-454 1072.26,-454 1072.26,-460 1066.26,-466 1060.26,-466"/>
<text text-anchor="middle" x="998.59" y="-450.8" font-family="Helvetica,sans-Serif" font-size="14.00">FGM &lt;= 264.0</text>
<text text-anchor="middle" x="998.59" y="-436.8" font-family="Helvetica,sans-Serif" font-size="14.00">samples = 100.0%</text>
<text text-anchor="middle" x="998.59" y="-422.8" font-family="Helvetica,sans-Serif" font-size="14.00">value = 8152281.342</text>
</g>
<!-- 1 -->
<g id="node2" class="node">
<title>1</title>
<path fill="#fceee5" stroke="black" d="M721.26,-380C721.26,-380 597.91,-380 597.91,-380 591.91,-380 585.91,-374 585.91,-368 585.91,-368 585.91,-342 585.91,-342 585.91,-336 591.91,-330 597.91,-330 597.91,-330 721.26,-330 721.26,-330 727.26,-330 733.26,-336 733.26,-342 733.26,-342 733.26,-368 733.26,-368 733.26,-374 727.26,-380 721.26,-380"/>
<text text-anchor="middle" x="659.59" y="-364.8" font-family="Helvetica,sans-Serif" font-size="14.00">AGE &lt;= 26.5</text>
<text text-anchor="middle" x="659.59" y="-350.8" font-family="Helvetica,sans-Serif" font-size="14.00">samples = 80.4%</text>
<text text-anchor="middle" x="659.59" y="-336.8" font-family="Helvetica,sans-Serif" font-size="14.00">value = 5481881.466</text>
</g>
<!-- 0&#45;&gt;1 -->
<g id="edge1" class="edge">
<title>0&#45;&gt;1</title>
<path fill="none" stroke="black" d="M924.61,-421.67C871.13,-408.42 798.81,-390.5 743.23,-376.73"/>
<polygon fill="black" stroke="black" points="743.95,-373.3 733.41,-374.29 742.27,-380.09 743.95,-373.3"/>
<text text-anchor="middle" x="746.31" y="-391.5" font-family="Helvetica,sans-Serif" font-size="14.00">True</text>
</g>
<!-- 322 -->
<g id="node27" class="node">
<title>322</title>
<path fill="#f2c19e" stroke="black" d="M1386.26,-380C1386.26,-380 1262.91,-380 1262.91,-380 1256.91,-380 1250.91,-374 1250.91,-368 1250.91,-368 1250.91,-342 1250.91,-342 1250.91,-336 1256.91,-330 1262.91,-330 1262.91,-330 1386.26,-330 1386.26,-330 1392.26,-330 1398.26,-336 1398.26,-342 1398.26,-342 1398.26,-368 1398.26,-368 1398.26,-374 1392.26,-380 1386.26,-380"/>
<text text-anchor="middle" x="1324.59" y="-364.8" font-family="Helvetica,sans-Serif" font-size="14.00">AGE &lt;= 28.5</text>
<text text-anchor="middle" x="1324.59" y="-350.8" font-family="Helvetica,sans-Serif" font-size="14.00">samples = 19.6%</text>
<text text-anchor="middle" x="1324.59" y="-336.8" font-family="Helvetica,sans-Serif" font-size="14.00">value = 19082290.14</text>
</g>
<!-- 0&#45;&gt;322 -->
<g id="edge26" class="edge">
<title>0&#45;&gt;322</title>
<path fill="none" stroke="black" d="M1072.56,-420.94C1122.68,-408.02 1189.01,-390.94 1241.03,-377.53"/>
<polygon fill="black" stroke="black" points="1242.1,-380.87 1250.91,-374.99 1240.35,-374.09 1242.1,-380.87"/>
<text text-anchor="middle" x="1238.2" y="-392.31" font-family="Helvetica,sans-Serif" font-size="14.00">False</text>
</g>
<!-- 2 -->
<g id="node3" class="node">
<title>2</title>
<path fill="#fdf5f0" stroke="black" d="M467.26,-294C467.26,-294 343.91,-294 343.91,-294 337.91,-294 331.91,-288 331.91,-282 331.91,-282 331.91,-256 331.91,-256 331.91,-250 337.91,-244 343.91,-244 343.91,-244 467.26,-244 467.26,-244 473.26,-244 479.26,-250 479.26,-256 479.26,-256 479.26,-282 479.26,-282 479.26,-288 473.26,-294 467.26,-294"/>
<text text-anchor="middle" x="405.59" y="-278.8" font-family="Helvetica,sans-Serif" font-size="14.00">BLK &lt;= 86.5</text>
<text text-anchor="middle" x="405.59" y="-264.8" font-family="Helvetica,sans-Serif" font-size="14.00">samples = 52.5%</text>
<text text-anchor="middle" x="405.59" y="-250.8" font-family="Helvetica,sans-Serif" font-size="14.00">value = 3344699.852</text>
</g>
<!-- 1&#45;&gt;2 -->
<g id="edge2" class="edge">
<title>1&#45;&gt;2</title>
<path fill="none" stroke="black" d="M586.8,-329.93C555.98,-319.74 519.91,-307.81 488.11,-297.29"/>
<polygon fill="black" stroke="black" points="488.98,-293.89 478.38,-294.07 486.78,-300.54 488.98,-293.89"/>
</g>
<!-- 211 -->
<g id="node12" class="node">
<title>211</title>
<path fill="#f9e1d0" stroke="black" d="M721.26,-294C721.26,-294 597.91,-294 597.91,-294 591.91,-294 585.91,-288 585.91,-282 585.91,-282 585.91,-256 585.91,-256 585.91,-250 591.91,-244 597.91,-244 597.91,-244 721.26,-244 721.26,-244 727.26,-244 733.26,-250 733.26,-256 733.26,-256 733.26,-282 733.26,-282 733.26,-288 727.26,-294 721.26,-294"/>
<text text-anchor="middle" x="659.59" y="-278.8" font-family="Helvetica,sans-Serif" font-size="14.00">FTA &lt;= 95.0</text>
<text text-anchor="middle" x="659.59" y="-264.8" font-family="Helvetica,sans-Serif" font-size="14.00">samples = 27.9%</text>
<text text-anchor="middle" x="659.59" y="-250.8" font-family="Helvetica,sans-Serif" font-size="14.00">value = 9510994.344</text>
</g>
<!-- 1&#45;&gt;211 -->
<g id="edge11" class="edge">
<title>1&#45;&gt;211</title>
<path fill="none" stroke="black" d="M659.59,-329.7C659.59,-321.78 659.59,-312.83 659.59,-304.31"/>
<polygon fill="black" stroke="black" points="663.09,-304.24 659.59,-294.24 656.09,-304.24 663.09,-304.24"/>
</g>
<!-- 3 -->
<g id="node4" class="node">
<title>3</title>
<path fill="#fdf6f1" stroke="black" d="M300.26,-208C300.26,-208 176.91,-208 176.91,-208 170.91,-208 164.91,-202 164.91,-196 164.91,-196 164.91,-170 164.91,-170 164.91,-164 170.91,-158 176.91,-158 176.91,-158 300.26,-158 300.26,-158 306.26,-158 312.26,-164 312.26,-170 312.26,-170 312.26,-196 312.26,-196 312.26,-202 306.26,-208 300.26,-208"/>
<text text-anchor="middle" x="238.59" y="-192.8" font-family="Helvetica,sans-Serif" font-size="14.00">BLK &lt;= 21.5</text>
<text text-anchor="middle" x="238.59" y="-178.8" font-family="Helvetica,sans-Serif" font-size="14.00">samples = 52.1%</text>
<text text-anchor="middle" x="238.59" y="-164.8" font-family="Helvetica,sans-Serif" font-size="14.00">value = 3216144.588</text>
</g>
<!-- 2&#45;&gt;3 -->
<g id="edge3" class="edge">
<title>2&#45;&gt;3</title>
<path fill="none" stroke="black" d="M357.73,-243.93C338.34,-234.18 315.79,-222.83 295.56,-212.66"/>
<polygon fill="black" stroke="black" points="296.96,-209.44 286.45,-208.07 293.81,-215.69 296.96,-209.44"/>
</g>
<!-- 210 -->
<g id="node11" class="node">
<title>210</title>
<path fill="#f3c5a4" stroke="black" d="M463.48,-201C463.48,-201 347.7,-201 347.7,-201 341.7,-201 335.7,-195 335.7,-189 335.7,-189 335.7,-177 335.7,-177 335.7,-171 341.7,-165 347.7,-165 347.7,-165 463.48,-165 463.48,-165 469.48,-165 475.48,-171 475.48,-177 475.48,-177 475.48,-189 475.48,-189 475.48,-195 469.48,-201 463.48,-201"/>
<text text-anchor="middle" x="405.59" y="-185.8" font-family="Helvetica,sans-Serif" font-size="14.00">samples = 0.5%</text>
<text text-anchor="middle" x="405.59" y="-171.8" font-family="Helvetica,sans-Serif" font-size="14.00">value = 18000000.0</text>
</g>
<!-- 2&#45;&gt;210 -->
<g id="edge10" class="edge">
<title>2&#45;&gt;210</title>
<path fill="none" stroke="black" d="M405.59,-243.7C405.59,-233.56 405.59,-221.74 405.59,-211.3"/>
<polygon fill="black" stroke="black" points="409.09,-211.05 405.59,-201.05 402.09,-211.05 409.09,-211.05"/>
</g>
<!-- 4 -->
<g id="node5" class="node">
<title>4</title>
<path fill="#fef8f4" stroke="black" d="M135.26,-122C135.26,-122 11.91,-122 11.91,-122 5.91,-122 -0.09,-116 -0.09,-110 -0.09,-110 -0.09,-84 -0.09,-84 -0.09,-78 5.91,-72 11.91,-72 11.91,-72 135.26,-72 135.26,-72 141.26,-72 147.26,-78 147.26,-84 147.26,-84 147.26,-110 147.26,-110 147.26,-116 141.26,-122 135.26,-122"/>
<text text-anchor="middle" x="73.59" y="-106.8" font-family="Helvetica,sans-Serif" font-size="14.00">AGE &lt;= 25.5</text>
<text text-anchor="middle" x="73.59" y="-92.8" font-family="Helvetica,sans-Serif" font-size="14.00">samples = 39.7%</text>
<text text-anchor="middle" x="73.59" y="-78.8" font-family="Helvetica,sans-Serif" font-size="14.00">value = 2586827.931</text>
</g>
<!-- 3&#45;&gt;4 -->
<g id="edge4" class="edge">
<title>3&#45;&gt;4</title>
<path fill="none" stroke="black" d="M191.31,-157.93C172.15,-148.18 149.87,-136.83 129.88,-126.66"/>
<polygon fill="black" stroke="black" points="131.38,-123.49 120.88,-122.07 128.2,-129.73 131.38,-123.49"/>
</g>
<!-- 157 -->
<g id="node8" class="node">
<title>157</title>
<path fill="#fcefe6" stroke="black" d="M300.26,-122C300.26,-122 176.91,-122 176.91,-122 170.91,-122 164.91,-116 164.91,-110 164.91,-110 164.91,-84 164.91,-84 164.91,-78 170.91,-72 176.91,-72 176.91,-72 300.26,-72 300.26,-72 306.26,-72 312.26,-78 312.26,-84 312.26,-84 312.26,-110 312.26,-110 312.26,-116 306.26,-122 300.26,-122"/>
<text text-anchor="middle" x="238.59" y="-106.8" font-family="Helvetica,sans-Serif" font-size="14.00">REB &lt;= 531.5</text>
<text text-anchor="middle" x="238.59" y="-92.8" font-family="Helvetica,sans-Serif" font-size="14.00">samples = 12.3%</text>
<text text-anchor="middle" x="238.59" y="-78.8" font-family="Helvetica,sans-Serif" font-size="14.00">value = 5243942.704</text>
</g>
<!-- 3&#45;&gt;157 -->
<g id="edge7" class="edge">
<title>3&#45;&gt;157</title>
<path fill="none" stroke="black" d="M238.59,-157.7C238.59,-149.78 238.59,-140.83 238.59,-132.31"/>
<polygon fill="black" stroke="black" points="242.09,-132.24 238.59,-122.24 235.09,-132.24 242.09,-132.24"/>
</g>
<!-- 5 -->
<g id="node6" class="node">
<title>5</title>
<path fill="#c0c0c0" stroke="black" d="M52.59,-36C52.59,-36 22.59,-36 22.59,-36 16.59,-36 10.59,-30 10.59,-24 10.59,-24 10.59,-12 10.59,-12 10.59,-6 16.59,0 22.59,0 22.59,0 52.59,0 52.59,0 58.59,0 64.59,-6 64.59,-12 64.59,-12 64.59,-24 64.59,-24 64.59,-30 58.59,-36 52.59,-36"/>
<text text-anchor="middle" x="37.59" y="-13.8" font-family="Helvetica,sans-Serif" font-size="14.00">(...)</text>
</g>
<!-- 4&#45;&gt;5 -->
<g id="edge5" class="edge">
<title>4&#45;&gt;5</title>
<path fill="none" stroke="black" d="M62.2,-71.64C58.31,-63.31 53.94,-53.97 49.97,-45.48"/>
<polygon fill="black" stroke="black" points="53.12,-43.95 45.71,-36.38 46.78,-46.92 53.12,-43.95"/>
</g>
<!-- 144 -->
<g id="node7" class="node">
<title>144</title>
<path fill="#c0c0c0" stroke="black" d="M124.59,-36C124.59,-36 94.59,-36 94.59,-36 88.59,-36 82.59,-30 82.59,-24 82.59,-24 82.59,-12 82.59,-12 82.59,-6 88.59,0 94.59,0 94.59,0 124.59,0 124.59,0 130.59,0 136.59,-6 136.59,-12 136.59,-12 136.59,-24 136.59,-24 136.59,-30 130.59,-36 124.59,-36"/>
<text text-anchor="middle" x="109.59" y="-13.8" font-family="Helvetica,sans-Serif" font-size="14.00">(...)</text>
</g>
<!-- 4&#45;&gt;144 -->
<g id="edge6" class="edge">
<title>4&#45;&gt;144</title>
<path fill="none" stroke="black" d="M84.98,-71.64C88.87,-63.31 93.24,-53.97 97.2,-45.48"/>
<polygon fill="black" stroke="black" points="100.4,-46.92 101.46,-36.38 94.06,-43.95 100.4,-46.92"/>
</g>
<!-- 158 -->
<g id="node9" class="node">
<title>158</title>
<path fill="#c0c0c0" stroke="black" d="M225.59,-36C225.59,-36 195.59,-36 195.59,-36 189.59,-36 183.59,-30 183.59,-24 183.59,-24 183.59,-12 183.59,-12 183.59,-6 189.59,0 195.59,0 195.59,0 225.59,0 225.59,0 231.59,0 237.59,-6 237.59,-12 237.59,-12 237.59,-24 237.59,-24 237.59,-30 231.59,-36 225.59,-36"/>
<text text-anchor="middle" x="210.59" y="-13.8" font-family="Helvetica,sans-Serif" font-size="14.00">(...)</text>
</g>
<!-- 157&#45;&gt;158 -->
<g id="edge8" class="edge">
<title>157&#45;&gt;158</title>
<path fill="none" stroke="black" d="M229.73,-71.64C226.77,-63.49 223.45,-54.37 220.42,-46.03"/>
<polygon fill="black" stroke="black" points="223.61,-44.58 216.91,-36.38 217.03,-46.97 223.61,-44.58"/>
</g>
<!-- 209 -->
<g id="node10" class="node">
<title>209</title>
<path fill="#c0c0c0" stroke="black" d="M297.59,-36C297.59,-36 267.59,-36 267.59,-36 261.59,-36 255.59,-30 255.59,-24 255.59,-24 255.59,-12 255.59,-12 255.59,-6 261.59,0 267.59,0 267.59,0 297.59,0 297.59,0 303.59,0 309.59,-6 309.59,-12 309.59,-12 309.59,-24 309.59,-24 309.59,-30 303.59,-36 297.59,-36"/>
<text text-anchor="middle" x="282.59" y="-13.8" font-family="Helvetica,sans-Serif" font-size="14.00">(...)</text>
</g>
<!-- 157&#45;&gt;209 -->
<g id="edge9" class="edge">
<title>157&#45;&gt;209</title>
<path fill="none" stroke="black" d="M252.51,-71.64C257.32,-63.22 262.72,-53.77 267.61,-45.21"/>
<polygon fill="black" stroke="black" points="270.74,-46.8 272.66,-36.38 264.66,-43.32 270.74,-46.8"/>
</g>
<!-- 212 -->
<g id="node13" class="node">
<title>212</title>
<path fill="#fae8db" stroke="black" d="M634.26,-208C634.26,-208 510.91,-208 510.91,-208 504.91,-208 498.91,-202 498.91,-196 498.91,-196 498.91,-170 498.91,-170 498.91,-164 504.91,-158 510.91,-158 510.91,-158 634.26,-158 634.26,-158 640.26,-158 646.26,-164 646.26,-170 646.26,-170 646.26,-196 646.26,-196 646.26,-202 640.26,-208 634.26,-208"/>
<text text-anchor="middle" x="572.59" y="-192.8" font-family="Helvetica,sans-Serif" font-size="14.00">DREB &lt;= 179.5</text>
<text text-anchor="middle" x="572.59" y="-178.8" font-family="Helvetica,sans-Serif" font-size="14.00">samples = 19.6%</text>
<text text-anchor="middle" x="572.59" y="-164.8" font-family="Helvetica,sans-Serif" font-size="14.00">value = 7313140.907</text>
</g>
<!-- 211&#45;&gt;212 -->
<g id="edge12" class="edge">
<title>211&#45;&gt;212</title>
<path fill="none" stroke="black" d="M634.42,-243.7C625.23,-234.82 614.69,-224.65 604.95,-215.25"/>
<polygon fill="black" stroke="black" points="607.32,-212.67 597.69,-208.24 602.46,-217.71 607.32,-212.67"/>
</g>
<!-- 287 -->
<g id="node20" class="node">
<title>287</title>
<path fill="#f5d0b5" stroke="black" d="M799.48,-208C799.48,-208 683.7,-208 683.7,-208 677.7,-208 671.7,-202 671.7,-196 671.7,-196 671.7,-170 671.7,-170 671.7,-164 677.7,-158 683.7,-158 683.7,-158 799.48,-158 799.48,-158 805.48,-158 811.48,-164 811.48,-170 811.48,-170 811.48,-196 811.48,-196 811.48,-202 805.48,-208 799.48,-208"/>
<text text-anchor="middle" x="741.59" y="-192.8" font-family="Helvetica,sans-Serif" font-size="14.00">GP &lt;= 38.5</text>
<text text-anchor="middle" x="741.59" y="-178.8" font-family="Helvetica,sans-Serif" font-size="14.00">samples = 8.2%</text>
<text text-anchor="middle" x="741.59" y="-164.8" font-family="Helvetica,sans-Serif" font-size="14.00">value = 14761422.0</text>
</g>
<!-- 211&#45;&gt;287 -->
<g id="edge19" class="edge">
<title>211&#45;&gt;287</title>
<path fill="none" stroke="black" d="M683.31,-243.7C691.89,-234.91 701.71,-224.85 710.81,-215.52"/>
<polygon fill="black" stroke="black" points="713.44,-217.84 717.92,-208.24 708.43,-212.95 713.44,-217.84"/>
</g>
<!-- 213 -->
<g id="node14" class="node">
<title>213</title>
<path fill="#fbede3" stroke="black" d="M465.26,-122C465.26,-122 341.91,-122 341.91,-122 335.91,-122 329.91,-116 329.91,-110 329.91,-110 329.91,-84 329.91,-84 329.91,-78 335.91,-72 341.91,-72 341.91,-72 465.26,-72 465.26,-72 471.26,-72 477.26,-78 477.26,-84 477.26,-84 477.26,-110 477.26,-110 477.26,-116 471.26,-122 465.26,-122"/>
<text text-anchor="middle" x="403.59" y="-106.8" font-family="Helvetica,sans-Serif" font-size="14.00">W &lt;= 7.0</text>
<text text-anchor="middle" x="403.59" y="-92.8" font-family="Helvetica,sans-Serif" font-size="14.00">samples = 16.0%</text>
<text text-anchor="middle" x="403.59" y="-78.8" font-family="Helvetica,sans-Serif" font-size="14.00">value = 5847661.543</text>
</g>
<!-- 212&#45;&gt;213 -->
<g id="edge13" class="edge">
<title>212&#45;&gt;213</title>
<path fill="none" stroke="black" d="M524.16,-157.93C504.54,-148.18 481.72,-136.83 461.24,-126.66"/>
<polygon fill="black" stroke="black" points="462.54,-123.39 452.02,-122.07 459.42,-129.66 462.54,-123.39"/>
</g>
<!-- 272 -->
<g id="node17" class="node">
<title>272</title>
<path fill="#f6d3ba" stroke="black" d="M638.05,-122C638.05,-122 507.13,-122 507.13,-122 501.13,-122 495.13,-116 495.13,-110 495.13,-110 495.13,-84 495.13,-84 495.13,-78 501.13,-72 507.13,-72 507.13,-72 638.05,-72 638.05,-72 644.05,-72 650.05,-78 650.05,-84 650.05,-84 650.05,-110 650.05,-110 650.05,-116 644.05,-122 638.05,-122"/>
<text text-anchor="middle" x="572.59" y="-106.8" font-family="Helvetica,sans-Serif" font-size="14.00">GP &lt;= 39.0</text>
<text text-anchor="middle" x="572.59" y="-92.8" font-family="Helvetica,sans-Serif" font-size="14.00">samples = 3.7%</text>
<text text-anchor="middle" x="572.59" y="-78.8" font-family="Helvetica,sans-Serif" font-size="14.00">value = 13724613.125</text>
</g>
<!-- 212&#45;&gt;272 -->
<g id="edge16" class="edge">
<title>212&#45;&gt;272</title>
<path fill="none" stroke="black" d="M572.59,-157.7C572.59,-149.78 572.59,-140.83 572.59,-132.31"/>
<polygon fill="black" stroke="black" points="576.09,-132.24 572.59,-122.24 569.09,-132.24 576.09,-132.24"/>
</g>
<!-- 214 -->
<g id="node15" class="node">
<title>214</title>
<path fill="#c0c0c0" stroke="black" d="M408.59,-36C408.59,-36 378.59,-36 378.59,-36 372.59,-36 366.59,-30 366.59,-24 366.59,-24 366.59,-12 366.59,-12 366.59,-6 372.59,0 378.59,0 378.59,0 408.59,0 408.59,0 414.59,0 420.59,-6 420.59,-12 420.59,-12 420.59,-24 420.59,-24 420.59,-30 414.59,-36 408.59,-36"/>
<text text-anchor="middle" x="393.59" y="-13.8" font-family="Helvetica,sans-Serif" font-size="14.00">(...)</text>
</g>
<!-- 213&#45;&gt;214 -->
<g id="edge14" class="edge">
<title>213&#45;&gt;214</title>
<path fill="none" stroke="black" d="M400.42,-71.64C399.38,-63.58 398.21,-54.57 397.13,-46.31"/>
<polygon fill="black" stroke="black" points="400.6,-45.84 395.84,-36.38 393.66,-46.74 400.6,-45.84"/>
</g>
<!-- 223 -->
<g id="node16" class="node">
<title>223</title>
<path fill="#c0c0c0" stroke="black" d="M480.59,-36C480.59,-36 450.59,-36 450.59,-36 444.59,-36 438.59,-30 438.59,-24 438.59,-24 438.59,-12 438.59,-12 438.59,-6 444.59,0 450.59,0 450.59,0 480.59,0 480.59,0 486.59,0 492.59,-6 492.59,-12 492.59,-12 492.59,-24 492.59,-24 492.59,-30 486.59,-36 480.59,-36"/>
<text text-anchor="middle" x="465.59" y="-13.8" font-family="Helvetica,sans-Serif" font-size="14.00">(...)</text>
</g>
<!-- 213&#45;&gt;223 -->
<g id="edge15" class="edge">
<title>213&#45;&gt;223</title>
<path fill="none" stroke="black" d="M423.2,-71.64C430.19,-62.96 438.08,-53.16 445.14,-44.4"/>
<polygon fill="black" stroke="black" points="448.05,-46.36 451.6,-36.38 442.6,-41.97 448.05,-46.36"/>
</g>
<!-- 273 -->
<g id="node18" class="node">
<title>273</title>
<path fill="#c0c0c0" stroke="black" d="M569.59,-36C569.59,-36 539.59,-36 539.59,-36 533.59,-36 527.59,-30 527.59,-24 527.59,-24 527.59,-12 527.59,-12 527.59,-6 533.59,0 539.59,0 539.59,0 569.59,0 569.59,0 575.59,0 581.59,-6 581.59,-12 581.59,-12 581.59,-24 581.59,-24 581.59,-30 575.59,-36 569.59,-36"/>
<text text-anchor="middle" x="554.59" y="-13.8" font-family="Helvetica,sans-Serif" font-size="14.00">(...)</text>
</g>
<!-- 272&#45;&gt;273 -->
<g id="edge17" class="edge">
<title>272&#45;&gt;273</title>
<path fill="none" stroke="black" d="M566.89,-71.64C565.01,-63.58 562.9,-54.57 560.97,-46.31"/>
<polygon fill="black" stroke="black" points="564.33,-45.32 558.65,-36.38 557.52,-46.91 564.33,-45.32"/>
</g>
<!-- 276 -->
<g id="node19" class="node">
<title>276</title>
<path fill="#c0c0c0" stroke="black" d="M641.59,-36C641.59,-36 611.59,-36 611.59,-36 605.59,-36 599.59,-30 599.59,-24 599.59,-24 599.59,-12 599.59,-12 599.59,-6 605.59,0 611.59,0 611.59,0 641.59,0 641.59,0 647.59,0 653.59,-6 653.59,-12 653.59,-12 653.59,-24 653.59,-24 653.59,-30 647.59,-36 641.59,-36"/>
<text text-anchor="middle" x="626.59" y="-13.8" font-family="Helvetica,sans-Serif" font-size="14.00">(...)</text>
</g>
<!-- 272&#45;&gt;276 -->
<g id="edge18" class="edge">
<title>272&#45;&gt;276</title>
<path fill="none" stroke="black" d="M589.67,-71.64C595.7,-63.05 602.49,-53.36 608.59,-44.67"/>
<polygon fill="black" stroke="black" points="611.53,-46.57 614.4,-36.38 605.79,-42.55 611.53,-46.57"/>
</g>
<!-- 288 -->
<g id="node21" class="node">
<title>288</title>
<path fill="#eca470" stroke="black" d="M803.26,-122C803.26,-122 679.91,-122 679.91,-122 673.91,-122 667.91,-116 667.91,-110 667.91,-110 667.91,-84 667.91,-84 667.91,-78 673.91,-72 679.91,-72 679.91,-72 803.26,-72 803.26,-72 809.26,-72 815.26,-78 815.26,-84 815.26,-84 815.26,-110 815.26,-110 815.26,-116 809.26,-122 803.26,-122"/>
<text text-anchor="middle" x="741.59" y="-106.8" font-family="Helvetica,sans-Serif" font-size="14.00">AST &lt;= 52.0</text>
<text text-anchor="middle" x="741.59" y="-92.8" font-family="Helvetica,sans-Serif" font-size="14.00">samples = 1.8%</text>
<text text-anchor="middle" x="741.59" y="-78.8" font-family="Helvetica,sans-Serif" font-size="14.00">value = 27998003.75</text>
</g>
<!-- 287&#45;&gt;288 -->
<g id="edge20" class="edge">
<title>287&#45;&gt;288</title>
<path fill="none" stroke="black" d="M741.59,-157.7C741.59,-149.78 741.59,-140.83 741.59,-132.31"/>
<polygon fill="black" stroke="black" points="745.09,-132.24 741.59,-122.24 738.09,-132.24 745.09,-132.24"/>
</g>
<!-- 295 -->
<g id="node24" class="node">
<title>295</title>
<path fill="#f8dcc8" stroke="black" d="M980.01,-122C980.01,-122 845.17,-122 845.17,-122 839.17,-122 833.17,-116 833.17,-110 833.17,-110 833.17,-84 833.17,-84 833.17,-78 839.17,-72 845.17,-72 845.17,-72 980.01,-72 980.01,-72 986.01,-72 992.01,-78 992.01,-84 992.01,-84 992.01,-110 992.01,-110 992.01,-116 986.01,-122 980.01,-122"/>
<text text-anchor="middle" x="912.59" y="-106.8" font-family="Helvetica,sans-Serif" font-size="14.00">FT_PERCENT &lt;= 87.5</text>
<text text-anchor="middle" x="912.59" y="-92.8" font-family="Helvetica,sans-Serif" font-size="14.00">samples = 6.4%</text>
<text text-anchor="middle" x="912.59" y="-78.8" font-family="Helvetica,sans-Serif" font-size="14.00">value = 10979541.5</text>
</g>
<!-- 287&#45;&gt;295 -->
<g id="edge23" class="edge">
<title>287&#45;&gt;295</title>
<path fill="none" stroke="black" d="M790.59,-157.93C810.53,-148.13 833.74,-136.73 854.53,-126.52"/>
<polygon fill="black" stroke="black" points="856.15,-129.63 863.58,-122.07 853.06,-123.34 856.15,-129.63"/>
</g>
<!-- 289 -->
<g id="node22" class="node">
<title>289</title>
<path fill="#c0c0c0" stroke="black" d="M720.59,-36C720.59,-36 690.59,-36 690.59,-36 684.59,-36 678.59,-30 678.59,-24 678.59,-24 678.59,-12 678.59,-12 678.59,-6 684.59,0 690.59,0 690.59,0 720.59,0 720.59,0 726.59,0 732.59,-6 732.59,-12 732.59,-12 732.59,-24 732.59,-24 732.59,-30 726.59,-36 720.59,-36"/>
<text text-anchor="middle" x="705.59" y="-13.8" font-family="Helvetica,sans-Serif" font-size="14.00">(...)</text>
</g>
<!-- 288&#45;&gt;289 -->
<g id="edge21" class="edge">
<title>288&#45;&gt;289</title>
<path fill="none" stroke="black" d="M730.2,-71.64C726.31,-63.31 721.94,-53.97 717.97,-45.48"/>
<polygon fill="black" stroke="black" points="721.12,-43.95 713.71,-36.38 714.78,-46.92 721.12,-43.95"/>
</g>
<!-- 290 -->
<g id="node23" class="node">
<title>290</title>
<path fill="#c0c0c0" stroke="black" d="M792.59,-36C792.59,-36 762.59,-36 762.59,-36 756.59,-36 750.59,-30 750.59,-24 750.59,-24 750.59,-12 750.59,-12 750.59,-6 756.59,0 762.59,0 762.59,0 792.59,0 792.59,0 798.59,0 804.59,-6 804.59,-12 804.59,-12 804.59,-24 804.59,-24 804.59,-30 798.59,-36 792.59,-36"/>
<text text-anchor="middle" x="777.59" y="-13.8" font-family="Helvetica,sans-Serif" font-size="14.00">(...)</text>
</g>
<!-- 288&#45;&gt;290 -->
<g id="edge22" class="edge">
<title>288&#45;&gt;290</title>
<path fill="none" stroke="black" d="M752.98,-71.64C756.87,-63.31 761.24,-53.97 765.2,-45.48"/>
<polygon fill="black" stroke="black" points="768.4,-46.92 769.46,-36.38 762.06,-43.95 768.4,-46.92"/>
</g>
<!-- 296 -->
<g id="node25" class="node">
<title>296</title>
<path fill="#c0c0c0" stroke="black" d="M868.59,-36C868.59,-36 838.59,-36 838.59,-36 832.59,-36 826.59,-30 826.59,-24 826.59,-24 826.59,-12 826.59,-12 826.59,-6 832.59,0 838.59,0 838.59,0 868.59,0 868.59,0 874.59,0 880.59,-6 880.59,-12 880.59,-12 880.59,-24 880.59,-24 880.59,-30 874.59,-36 868.59,-36"/>
<text text-anchor="middle" x="853.59" y="-13.8" font-family="Helvetica,sans-Serif" font-size="14.00">(...)</text>
</g>
<!-- 295&#45;&gt;296 -->
<g id="edge24" class="edge">
<title>295&#45;&gt;296</title>
<path fill="none" stroke="black" d="M893.92,-71.64C887.27,-62.96 879.76,-53.16 873.05,-44.4"/>
<polygon fill="black" stroke="black" points="875.76,-42.19 866.9,-36.38 870.21,-46.44 875.76,-42.19"/>
</g>
<!-- 317 -->
<g id="node26" class="node">
<title>317</title>
<path fill="#c0c0c0" stroke="black" d="M940.59,-36C940.59,-36 910.59,-36 910.59,-36 904.59,-36 898.59,-30 898.59,-24 898.59,-24 898.59,-12 898.59,-12 898.59,-6 904.59,0 910.59,0 910.59,0 940.59,0 940.59,0 946.59,0 952.59,-6 952.59,-12 952.59,-12 952.59,-24 952.59,-24 952.59,-30 946.59,-36 940.59,-36"/>
<text text-anchor="middle" x="925.59" y="-13.8" font-family="Helvetica,sans-Serif" font-size="14.00">(...)</text>
</g>
<!-- 295&#45;&gt;317 -->
<g id="edge25" class="edge">
<title>295&#45;&gt;317</title>
<path fill="none" stroke="black" d="M916.7,-71.64C918.06,-63.58 919.58,-54.57 920.98,-46.31"/>
<polygon fill="black" stroke="black" points="924.44,-46.82 922.65,-36.38 917.54,-45.65 924.44,-46.82"/>
</g>
<!-- 323 -->
<g id="node28" class="node">
<title>323</title>
<path fill="#f6d3bb" stroke="black" d="M1390.05,-294C1390.05,-294 1259.13,-294 1259.13,-294 1253.13,-294 1247.13,-288 1247.13,-282 1247.13,-282 1247.13,-256 1247.13,-256 1247.13,-250 1253.13,-244 1259.13,-244 1259.13,-244 1390.05,-244 1390.05,-244 1396.05,-244 1402.05,-250 1402.05,-256 1402.05,-256 1402.05,-282 1402.05,-282 1402.05,-288 1396.05,-294 1390.05,-294"/>
<text text-anchor="middle" x="1324.59" y="-278.8" font-family="Helvetica,sans-Serif" font-size="14.00">AGE &lt;= 22.5</text>
<text text-anchor="middle" x="1324.59" y="-264.8" font-family="Helvetica,sans-Serif" font-size="14.00">samples = 11.9%</text>
<text text-anchor="middle" x="1324.59" y="-250.8" font-family="Helvetica,sans-Serif" font-size="14.00">value = 13622292.923</text>
</g>
<!-- 322&#45;&gt;323 -->
<g id="edge27" class="edge">
<title>322&#45;&gt;323</title>
<path fill="none" stroke="black" d="M1324.59,-329.7C1324.59,-321.78 1324.59,-312.83 1324.59,-304.31"/>
<polygon fill="black" stroke="black" points="1328.09,-304.24 1324.59,-294.24 1321.09,-304.24 1328.09,-304.24"/>
</g>
<!-- 370 -->
<g id="node43" class="node">
<title>370</title>
<path fill="#eda673" stroke="black" d="M1906.52,-294C1906.52,-294 1776.66,-294 1776.66,-294 1770.66,-294 1764.66,-288 1764.66,-282 1764.66,-282 1764.66,-256 1764.66,-256 1764.66,-250 1770.66,-244 1776.66,-244 1776.66,-244 1906.52,-244 1906.52,-244 1912.52,-244 1918.52,-250 1918.52,-256 1918.52,-256 1918.52,-282 1918.52,-282 1918.52,-288 1912.52,-294 1906.52,-294"/>
<text text-anchor="middle" x="1841.59" y="-278.8" font-family="Helvetica,sans-Serif" font-size="14.00">AST &lt;= 331.5</text>
<text text-anchor="middle" x="1841.59" y="-264.8" font-family="Helvetica,sans-Serif" font-size="14.00">samples = 7.8%</text>
<text text-anchor="middle" x="1841.59" y="-250.8" font-family="Helvetica,sans-Serif" font-size="14.00">value = 27432874.118</text>
</g>
<!-- 322&#45;&gt;370 -->
<g id="edge42" class="edge">
<title>322&#45;&gt;370</title>
<path fill="none" stroke="black" d="M1398.39,-342.01C1492.39,-326.74 1654.6,-300.38 1754.54,-284.14"/>
<polygon fill="black" stroke="black" points="1755.3,-287.57 1764.61,-282.51 1754.18,-280.66 1755.3,-287.57"/>
</g>
<!-- 324 -->
<g id="node29" class="node">
<title>324</title>
<path fill="#fbe9dd" stroke="black" d="M1307.7,-208C1307.7,-208 1161.47,-208 1161.47,-208 1155.47,-208 1149.47,-202 1149.47,-196 1149.47,-196 1149.47,-170 1149.47,-170 1149.47,-164 1155.47,-158 1161.47,-158 1161.47,-158 1307.7,-158 1307.7,-158 1313.7,-158 1319.7,-164 1319.7,-170 1319.7,-170 1319.7,-196 1319.7,-196 1319.7,-202 1313.7,-208 1307.7,-208"/>
<text text-anchor="middle" x="1234.59" y="-192.8" font-family="Helvetica,sans-Serif" font-size="14.00">MIN_PLAYED &lt;= 1792.0</text>
<text text-anchor="middle" x="1234.59" y="-178.8" font-family="Helvetica,sans-Serif" font-size="14.00">samples = 4.1%</text>
<text text-anchor="middle" x="1234.59" y="-164.8" font-family="Helvetica,sans-Serif" font-size="14.00">value = 7032489.444</text>
</g>
<!-- 323&#45;&gt;324 -->
<g id="edge28" class="edge">
<title>323&#45;&gt;324</title>
<path fill="none" stroke="black" d="M1298.56,-243.7C1289.04,-234.82 1278.14,-224.65 1268.07,-215.25"/>
<polygon fill="black" stroke="black" points="1270.26,-212.51 1260.56,-208.24 1265.48,-217.62 1270.26,-212.51"/>
</g>
<!-- 341 -->
<g id="node36" class="node">
<title>341</title>
<path fill="#f4c8a8" stroke="black" d="M1478.98,-208C1478.98,-208 1350.19,-208 1350.19,-208 1344.19,-208 1338.19,-202 1338.19,-196 1338.19,-196 1338.19,-170 1338.19,-170 1338.19,-164 1344.19,-158 1350.19,-158 1350.19,-158 1478.98,-158 1478.98,-158 1484.98,-158 1490.98,-164 1490.98,-170 1490.98,-170 1490.98,-196 1490.98,-196 1490.98,-202 1484.98,-208 1478.98,-208"/>
<text text-anchor="middle" x="1414.59" y="-192.8" font-family="Helvetica,sans-Serif" font-size="14.00">W &lt;= 24.5</text>
<text text-anchor="middle" x="1414.59" y="-178.8" font-family="Helvetica,sans-Serif" font-size="14.00">samples = 7.8%</text>
<text text-anchor="middle" x="1414.59" y="-164.8" font-family="Helvetica,sans-Serif" font-size="14.00">value = 17111012.412</text>
</g>
<!-- 323&#45;&gt;341 -->
<g id="edge35" class="edge">
<title>323&#45;&gt;341</title>
<path fill="none" stroke="black" d="M1350.62,-243.7C1360.13,-234.82 1371.03,-224.65 1381.11,-215.25"/>
<polygon fill="black" stroke="black" points="1383.69,-217.62 1388.61,-208.24 1378.92,-212.51 1383.69,-217.62"/>
</g>
<!-- 325 -->
<g id="node30" class="node">
<title>325</title>
<path fill="#fae7d9" stroke="black" d="M1145.26,-122C1145.26,-122 1021.91,-122 1021.91,-122 1015.91,-122 1009.91,-116 1009.91,-110 1009.91,-110 1009.91,-84 1009.91,-84 1009.91,-78 1015.91,-72 1021.91,-72 1021.91,-72 1145.26,-72 1145.26,-72 1151.26,-72 1157.26,-78 1157.26,-84 1157.26,-84 1157.26,-110 1157.26,-110 1157.26,-116 1151.26,-122 1145.26,-122"/>
<text text-anchor="middle" x="1083.59" y="-106.8" font-family="Helvetica,sans-Serif" font-size="14.00">x_3PM &lt;= 38.5</text>
<text text-anchor="middle" x="1083.59" y="-92.8" font-family="Helvetica,sans-Serif" font-size="14.00">samples = 3.2%</text>
<text text-anchor="middle" x="1083.59" y="-78.8" font-family="Helvetica,sans-Serif" font-size="14.00">value = 7796360.714</text>
</g>
<!-- 324&#45;&gt;325 -->
<g id="edge29" class="edge">
<title>324&#45;&gt;325</title>
<path fill="none" stroke="black" d="M1191.32,-157.93C1174.1,-148.35 1154.13,-137.24 1136.09,-127.21"/>
<polygon fill="black" stroke="black" points="1137.3,-123.88 1126.86,-122.07 1133.9,-129.99 1137.3,-123.88"/>
</g>
<!-- 338 -->
<g id="node33" class="node">
<title>338</title>
<path fill="#fcf2eb" stroke="black" d="M1294.19,-122C1294.19,-122 1186.98,-122 1186.98,-122 1180.98,-122 1174.98,-116 1174.98,-110 1174.98,-110 1174.98,-84 1174.98,-84 1174.98,-78 1180.98,-72 1186.98,-72 1186.98,-72 1294.19,-72 1294.19,-72 1300.19,-72 1306.19,-78 1306.19,-84 1306.19,-84 1306.19,-110 1306.19,-110 1306.19,-116 1300.19,-122 1294.19,-122"/>
<text text-anchor="middle" x="1240.59" y="-106.8" font-family="Helvetica,sans-Serif" font-size="14.00">W &lt;= 25.0</text>
<text text-anchor="middle" x="1240.59" y="-92.8" font-family="Helvetica,sans-Serif" font-size="14.00">samples = 0.9%</text>
<text text-anchor="middle" x="1240.59" y="-78.8" font-family="Helvetica,sans-Serif" font-size="14.00">value = 4358940.0</text>
</g>
<!-- 324&#45;&gt;338 -->
<g id="edge32" class="edge">
<title>324&#45;&gt;338</title>
<path fill="none" stroke="black" d="M1236.32,-157.7C1236.89,-149.78 1237.53,-140.83 1238.14,-132.31"/>
<polygon fill="black" stroke="black" points="1241.63,-132.47 1238.86,-122.24 1234.65,-131.97 1241.63,-132.47"/>
</g>
<!-- 326 -->
<g id="node31" class="node">
<title>326</title>
<path fill="#c0c0c0" stroke="black" d="M1032.59,-36C1032.59,-36 1002.59,-36 1002.59,-36 996.59,-36 990.59,-30 990.59,-24 990.59,-24 990.59,-12 990.59,-12 990.59,-6 996.59,0 1002.59,0 1002.59,0 1032.59,0 1032.59,0 1038.59,0 1044.59,-6 1044.59,-12 1044.59,-12 1044.59,-24 1044.59,-24 1044.59,-30 1038.59,-36 1032.59,-36"/>
<text text-anchor="middle" x="1017.59" y="-13.8" font-family="Helvetica,sans-Serif" font-size="14.00">(...)</text>
</g>
<!-- 325&#45;&gt;326 -->
<g id="edge30" class="edge">
<title>325&#45;&gt;326</title>
<path fill="none" stroke="black" d="M1062.7,-71.64C1055.19,-62.87 1046.69,-52.96 1039.12,-44.12"/>
<polygon fill="black" stroke="black" points="1041.65,-41.69 1032.48,-36.38 1036.33,-46.25 1041.65,-41.69"/>
</g>
<!-- 329 -->
<g id="node32" class="node">
<title>329</title>
<path fill="#c0c0c0" stroke="black" d="M1104.59,-36C1104.59,-36 1074.59,-36 1074.59,-36 1068.59,-36 1062.59,-30 1062.59,-24 1062.59,-24 1062.59,-12 1062.59,-12 1062.59,-6 1068.59,0 1074.59,0 1074.59,0 1104.59,0 1104.59,0 1110.59,0 1116.59,-6 1116.59,-12 1116.59,-12 1116.59,-24 1116.59,-24 1116.59,-30 1110.59,-36 1104.59,-36"/>
<text text-anchor="middle" x="1089.59" y="-13.8" font-family="Helvetica,sans-Serif" font-size="14.00">(...)</text>
</g>
<!-- 325&#45;&gt;329 -->
<g id="edge31" class="edge">
<title>325&#45;&gt;329</title>
<path fill="none" stroke="black" d="M1085.49,-71.64C1086.11,-63.67 1086.8,-54.77 1087.44,-46.58"/>
<polygon fill="black" stroke="black" points="1090.95,-46.62 1088.23,-36.38 1083.97,-46.07 1090.95,-46.62"/>
</g>
<!-- 339 -->
<g id="node34" class="node">
<title>339</title>
<path fill="#c0c0c0" stroke="black" d="M1194.59,-36C1194.59,-36 1164.59,-36 1164.59,-36 1158.59,-36 1152.59,-30 1152.59,-24 1152.59,-24 1152.59,-12 1152.59,-12 1152.59,-6 1158.59,0 1164.59,0 1164.59,0 1194.59,0 1194.59,0 1200.59,0 1206.59,-6 1206.59,-12 1206.59,-12 1206.59,-24 1206.59,-24 1206.59,-30 1200.59,-36 1194.59,-36"/>
<text text-anchor="middle" x="1179.59" y="-13.8" font-family="Helvetica,sans-Serif" font-size="14.00">(...)</text>
</g>
<!-- 338&#45;&gt;339 -->
<g id="edge33" class="edge">
<title>338&#45;&gt;339</title>
<path fill="none" stroke="black" d="M1221.29,-71.64C1214.41,-62.96 1206.65,-53.16 1199.71,-44.4"/>
<polygon fill="black" stroke="black" points="1202.31,-42.04 1193.35,-36.38 1196.82,-46.39 1202.31,-42.04"/>
</g>
<!-- 340 -->
<g id="node35" class="node">
<title>340</title>
<path fill="#c0c0c0" stroke="black" d="M1266.59,-36C1266.59,-36 1236.59,-36 1236.59,-36 1230.59,-36 1224.59,-30 1224.59,-24 1224.59,-24 1224.59,-12 1224.59,-12 1224.59,-6 1230.59,0 1236.59,0 1236.59,0 1266.59,0 1266.59,0 1272.59,0 1278.59,-6 1278.59,-12 1278.59,-12 1278.59,-24 1278.59,-24 1278.59,-30 1272.59,-36 1266.59,-36"/>
<text text-anchor="middle" x="1251.59" y="-13.8" font-family="Helvetica,sans-Serif" font-size="14.00">(...)</text>
</g>
<!-- 338&#45;&gt;340 -->
<g id="edge34" class="edge">
<title>338&#45;&gt;340</title>
<path fill="none" stroke="black" d="M1244.07,-71.64C1245.22,-63.58 1246.51,-54.57 1247.69,-46.31"/>
<polygon fill="black" stroke="black" points="1251.16,-46.77 1249.11,-36.38 1244.23,-45.78 1251.16,-46.77"/>
</g>
<!-- 342 -->
<g id="node37" class="node">
<title>342</title>
<path fill="#f0b68c" stroke="black" d="M1478.79,-122C1478.79,-122 1336.38,-122 1336.38,-122 1330.38,-122 1324.38,-116 1324.38,-110 1324.38,-110 1324.38,-84 1324.38,-84 1324.38,-78 1330.38,-72 1336.38,-72 1336.38,-72 1478.79,-72 1478.79,-72 1484.79,-72 1490.79,-78 1490.79,-84 1490.79,-84 1490.79,-110 1490.79,-110 1490.79,-116 1484.79,-122 1478.79,-122"/>
<text text-anchor="middle" x="1407.59" y="-106.8" font-family="Helvetica,sans-Serif" font-size="14.00">FT_PERCENT &lt;= 78.85</text>
<text text-anchor="middle" x="1407.59" y="-92.8" font-family="Helvetica,sans-Serif" font-size="14.00">samples = 3.7%</text>
<text text-anchor="middle" x="1407.59" y="-78.8" font-family="Helvetica,sans-Serif" font-size="14.00">value = 22621973.125</text>
</g>
<!-- 341&#45;&gt;342 -->
<g id="edge36" class="edge">
<title>341&#45;&gt;342</title>
<path fill="none" stroke="black" d="M1412.56,-157.7C1411.9,-149.78 1411.16,-140.83 1410.45,-132.31"/>
<polygon fill="black" stroke="black" points="1413.93,-131.92 1409.61,-122.24 1406.95,-132.5 1413.93,-131.92"/>
</g>
<!-- 353 -->
<g id="node40" class="node">
<title>353</title>
<path fill="#f7d8c2" stroke="black" d="M1667.7,-122C1667.7,-122 1521.47,-122 1521.47,-122 1515.47,-122 1509.47,-116 1509.47,-110 1509.47,-110 1509.47,-84 1509.47,-84 1509.47,-78 1515.47,-72 1521.47,-72 1521.47,-72 1667.7,-72 1667.7,-72 1673.7,-72 1679.7,-78 1679.7,-84 1679.7,-84 1679.7,-110 1679.7,-110 1679.7,-116 1673.7,-122 1667.7,-122"/>
<text text-anchor="middle" x="1594.59" y="-106.8" font-family="Helvetica,sans-Serif" font-size="14.00">MIN_PLAYED &lt;= 1552.0</text>
<text text-anchor="middle" x="1594.59" y="-92.8" font-family="Helvetica,sans-Serif" font-size="14.00">samples = 4.1%</text>
<text text-anchor="middle" x="1594.59" y="-78.8" font-family="Helvetica,sans-Serif" font-size="14.00">value = 12212380.667</text>
</g>
<!-- 341&#45;&gt;353 -->
<g id="edge39" class="edge">
<title>341&#45;&gt;353</title>
<path fill="none" stroke="black" d="M1466.17,-157.93C1487.26,-148.09 1511.81,-136.63 1533.77,-126.38"/>
<polygon fill="black" stroke="black" points="1535.42,-129.48 1543,-122.07 1532.46,-123.13 1535.42,-129.48"/>
</g>
<!-- 343 -->
<g id="node38" class="node">
<title>343</title>
<path fill="#c0c0c0" stroke="black" d="M1371.59,-36C1371.59,-36 1341.59,-36 1341.59,-36 1335.59,-36 1329.59,-30 1329.59,-24 1329.59,-24 1329.59,-12 1329.59,-12 1329.59,-6 1335.59,0 1341.59,0 1341.59,0 1371.59,0 1371.59,0 1377.59,0 1383.59,-6 1383.59,-12 1383.59,-12 1383.59,-24 1383.59,-24 1383.59,-30 1377.59,-36 1371.59,-36"/>
<text text-anchor="middle" x="1356.59" y="-13.8" font-family="Helvetica,sans-Serif" font-size="14.00">(...)</text>
</g>
<!-- 342&#45;&gt;343 -->
<g id="edge37" class="edge">
<title>342&#45;&gt;343</title>
<path fill="none" stroke="black" d="M1391.45,-71.64C1385.82,-63.13 1379.48,-53.56 1373.77,-44.94"/>
<polygon fill="black" stroke="black" points="1376.54,-42.78 1368.1,-36.38 1370.7,-46.65 1376.54,-42.78"/>
</g>
<!-- 352 -->
<g id="node39" class="node">
<title>352</title>
<path fill="#c0c0c0" stroke="black" d="M1443.59,-36C1443.59,-36 1413.59,-36 1413.59,-36 1407.59,-36 1401.59,-30 1401.59,-24 1401.59,-24 1401.59,-12 1401.59,-12 1401.59,-6 1407.59,0 1413.59,0 1413.59,0 1443.59,0 1443.59,0 1449.59,0 1455.59,-6 1455.59,-12 1455.59,-12 1455.59,-24 1455.59,-24 1455.59,-30 1449.59,-36 1443.59,-36"/>
<text text-anchor="middle" x="1428.59" y="-13.8" font-family="Helvetica,sans-Serif" font-size="14.00">(...)</text>
</g>
<!-- 342&#45;&gt;352 -->
<g id="edge38" class="edge">
<title>342&#45;&gt;352</title>
<path fill="none" stroke="black" d="M1414.23,-71.64C1416.45,-63.49 1418.94,-54.37 1421.21,-46.03"/>
<polygon fill="black" stroke="black" points="1424.59,-46.94 1423.85,-36.38 1417.84,-45.1 1424.59,-46.94"/>
</g>
<!-- 354 -->
<g id="node41" class="node">
<title>354</title>
<path fill="#c0c0c0" stroke="black" d="M1551.59,-36C1551.59,-36 1521.59,-36 1521.59,-36 1515.59,-36 1509.59,-30 1509.59,-24 1509.59,-24 1509.59,-12 1509.59,-12 1509.59,-6 1515.59,0 1521.59,0 1521.59,0 1551.59,0 1551.59,0 1557.59,0 1563.59,-6 1563.59,-12 1563.59,-12 1563.59,-24 1563.59,-24 1563.59,-30 1557.59,-36 1551.59,-36"/>
<text text-anchor="middle" x="1536.59" y="-13.8" font-family="Helvetica,sans-Serif" font-size="14.00">(...)</text>
</g>
<!-- 353&#45;&gt;354 -->
<g id="edge40" class="edge">
<title>353&#45;&gt;354</title>
<path fill="none" stroke="black" d="M1576.24,-71.64C1569.7,-62.96 1562.32,-53.16 1555.72,-44.4"/>
<polygon fill="black" stroke="black" points="1558.49,-42.26 1549.68,-36.38 1552.9,-46.47 1558.49,-42.26"/>
</g>
<!-- 359 -->
<g id="node42" class="node">
<title>359</title>
<path fill="#c0c0c0" stroke="black" d="M1623.59,-36C1623.59,-36 1593.59,-36 1593.59,-36 1587.59,-36 1581.59,-30 1581.59,-24 1581.59,-24 1581.59,-12 1581.59,-12 1581.59,-6 1587.59,0 1593.59,0 1593.59,0 1623.59,0 1623.59,0 1629.59,0 1635.59,-6 1635.59,-12 1635.59,-12 1635.59,-24 1635.59,-24 1635.59,-30 1629.59,-36 1623.59,-36"/>
<text text-anchor="middle" x="1608.59" y="-13.8" font-family="Helvetica,sans-Serif" font-size="14.00">(...)</text>
</g>
<!-- 353&#45;&gt;359 -->
<g id="edge41" class="edge">
<title>353&#45;&gt;359</title>
<path fill="none" stroke="black" d="M1599.02,-71.64C1600.48,-63.58 1602.12,-54.57 1603.62,-46.31"/>
<polygon fill="black" stroke="black" points="1607.08,-46.84 1605.43,-36.38 1600.2,-45.59 1607.08,-46.84"/>
</g>
<!-- 371 -->
<g id="node44" class="node">
<title>371</title>
<path fill="#efb083" stroke="black" d="M1907.05,-208C1907.05,-208 1776.13,-208 1776.13,-208 1770.13,-208 1764.13,-202 1764.13,-196 1764.13,-196 1764.13,-170 1764.13,-170 1764.13,-164 1770.13,-158 1776.13,-158 1776.13,-158 1907.05,-158 1907.05,-158 1913.05,-158 1919.05,-164 1919.05,-170 1919.05,-170 1919.05,-196 1919.05,-196 1919.05,-202 1913.05,-208 1907.05,-208"/>
<text text-anchor="middle" x="1841.59" y="-192.8" font-family="Helvetica,sans-Serif" font-size="14.00">W &lt;= 33.5</text>
<text text-anchor="middle" x="1841.59" y="-178.8" font-family="Helvetica,sans-Serif" font-size="14.00">samples = 5.9%</text>
<text text-anchor="middle" x="1841.59" y="-164.8" font-family="Helvetica,sans-Serif" font-size="14.00">value = 24377903.231</text>
</g>
<!-- 370&#45;&gt;371 -->
<g id="edge43" class="edge">
<title>370&#45;&gt;371</title>
<path fill="none" stroke="black" d="M1841.59,-243.7C1841.59,-235.78 1841.59,-226.83 1841.59,-218.31"/>
<polygon fill="black" stroke="black" points="1845.09,-218.24 1841.59,-208.24 1838.09,-218.24 1845.09,-218.24"/>
</g>
<!-- 394 -->
<g id="node51" class="node">
<title>394</title>
<path fill="#e6853f" stroke="black" d="M2139.48,-208C2139.48,-208 2023.7,-208 2023.7,-208 2017.7,-208 2011.7,-202 2011.7,-196 2011.7,-196 2011.7,-170 2011.7,-170 2011.7,-164 2017.7,-158 2023.7,-158 2023.7,-158 2139.48,-158 2139.48,-158 2145.48,-158 2151.48,-164 2151.48,-170 2151.48,-170 2151.48,-196 2151.48,-196 2151.48,-202 2145.48,-208 2139.48,-208"/>
<text text-anchor="middle" x="2081.59" y="-192.8" font-family="Helvetica,sans-Serif" font-size="14.00">PTS &lt;= 927.0</text>
<text text-anchor="middle" x="2081.59" y="-178.8" font-family="Helvetica,sans-Serif" font-size="14.00">samples = 1.8%</text>
<text text-anchor="middle" x="2081.59" y="-164.8" font-family="Helvetica,sans-Serif" font-size="14.00">value = 37361529.5</text>
</g>
<!-- 370&#45;&gt;394 -->
<g id="edge50" class="edge">
<title>370&#45;&gt;394</title>
<path fill="none" stroke="black" d="M1910.36,-243.93C1939.36,-233.78 1973.27,-221.91 2003.23,-211.43"/>
<polygon fill="black" stroke="black" points="2004.52,-214.68 2012.8,-208.07 2002.21,-208.07 2004.52,-214.68"/>
</g>
<!-- 372 -->
<g id="node45" class="node">
<title>372</title>
<path fill="#eca470" stroke="black" d="M1825.48,-122C1825.48,-122 1709.7,-122 1709.7,-122 1703.7,-122 1697.7,-116 1697.7,-110 1697.7,-110 1697.7,-84 1697.7,-84 1697.7,-78 1703.7,-72 1709.7,-72 1709.7,-72 1825.48,-72 1825.48,-72 1831.48,-72 1837.48,-78 1837.48,-84 1837.48,-84 1837.48,-110 1837.48,-110 1837.48,-116 1831.48,-122 1825.48,-122"/>
<text text-anchor="middle" x="1767.59" y="-106.8" font-family="Helvetica,sans-Serif" font-size="14.00">DREB &lt;= 239.5</text>
<text text-anchor="middle" x="1767.59" y="-92.8" font-family="Helvetica,sans-Serif" font-size="14.00">samples = 4.6%</text>
<text text-anchor="middle" x="1767.59" y="-78.8" font-family="Helvetica,sans-Serif" font-size="14.00">value = 27913595.6</text>
</g>
<!-- 371&#45;&gt;372 -->
<g id="edge44" class="edge">
<title>371&#45;&gt;372</title>
<path fill="none" stroke="black" d="M1820.18,-157.7C1812.51,-149 1803.75,-139.05 1795.6,-129.8"/>
<polygon fill="black" stroke="black" points="1798.18,-127.43 1788.94,-122.24 1792.93,-132.06 1798.18,-127.43"/>
</g>
<!-- 389 -->
<g id="node48" class="node">
<title>389</title>
<path fill="#f7d7c0" stroke="black" d="M1982.48,-122C1982.48,-122 1866.7,-122 1866.7,-122 1860.7,-122 1854.7,-116 1854.7,-110 1854.7,-110 1854.7,-84 1854.7,-84 1854.7,-78 1860.7,-72 1866.7,-72 1866.7,-72 1982.48,-72 1982.48,-72 1988.48,-72 1994.48,-78 1994.48,-84 1994.48,-84 1994.48,-110 1994.48,-110 1994.48,-116 1988.48,-122 1982.48,-122"/>
<text text-anchor="middle" x="1924.59" y="-106.8" font-family="Helvetica,sans-Serif" font-size="14.00">position_SG &lt;= 0.5</text>
<text text-anchor="middle" x="1924.59" y="-92.8" font-family="Helvetica,sans-Serif" font-size="14.00">samples = 1.4%</text>
<text text-anchor="middle" x="1924.59" y="-78.8" font-family="Helvetica,sans-Serif" font-size="14.00">value = 12592262.0</text>
</g>
<!-- 371&#45;&gt;389 -->
<g id="edge47" class="edge">
<title>371&#45;&gt;389</title>
<path fill="none" stroke="black" d="M1865.59,-157.7C1874.28,-148.91 1884.22,-138.85 1893.44,-129.52"/>
<polygon fill="black" stroke="black" points="1896.1,-131.82 1900.63,-122.24 1891.12,-126.89 1896.1,-131.82"/>
</g>
<!-- 373 -->
<g id="node46" class="node">
<title>373</title>
<path fill="#c0c0c0" stroke="black" d="M1716.59,-36C1716.59,-36 1686.59,-36 1686.59,-36 1680.59,-36 1674.59,-30 1674.59,-24 1674.59,-24 1674.59,-12 1674.59,-12 1674.59,-6 1680.59,0 1686.59,0 1686.59,0 1716.59,0 1716.59,0 1722.59,0 1728.59,-6 1728.59,-12 1728.59,-12 1728.59,-24 1728.59,-24 1728.59,-30 1722.59,-36 1716.59,-36"/>
<text text-anchor="middle" x="1701.59" y="-13.8" font-family="Helvetica,sans-Serif" font-size="14.00">(...)</text>
</g>
<!-- 372&#45;&gt;373 -->
<g id="edge45" class="edge">
<title>372&#45;&gt;373</title>
<path fill="none" stroke="black" d="M1746.7,-71.64C1739.19,-62.87 1730.69,-52.96 1723.12,-44.12"/>
<polygon fill="black" stroke="black" points="1725.65,-41.69 1716.48,-36.38 1720.33,-46.25 1725.65,-41.69"/>
</g>
<!-- 378 -->
<g id="node47" class="node">
<title>378</title>
<path fill="#c0c0c0" stroke="black" d="M1788.59,-36C1788.59,-36 1758.59,-36 1758.59,-36 1752.59,-36 1746.59,-30 1746.59,-24 1746.59,-24 1746.59,-12 1746.59,-12 1746.59,-6 1752.59,0 1758.59,0 1758.59,0 1788.59,0 1788.59,0 1794.59,0 1800.59,-6 1800.59,-12 1800.59,-12 1800.59,-24 1800.59,-24 1800.59,-30 1794.59,-36 1788.59,-36"/>
<text text-anchor="middle" x="1773.59" y="-13.8" font-family="Helvetica,sans-Serif" font-size="14.00">(...)</text>
</g>
<!-- 372&#45;&gt;378 -->
<g id="edge46" class="edge">
<title>372&#45;&gt;378</title>
<path fill="none" stroke="black" d="M1769.49,-71.64C1770.11,-63.67 1770.8,-54.77 1771.44,-46.58"/>
<polygon fill="black" stroke="black" points="1774.95,-46.62 1772.23,-36.38 1767.97,-46.07 1774.95,-46.62"/>
</g>
<!-- 390 -->
<g id="node49" class="node">
<title>390</title>
<path fill="#c0c0c0" stroke="black" d="M1903.59,-36C1903.59,-36 1873.59,-36 1873.59,-36 1867.59,-36 1861.59,-30 1861.59,-24 1861.59,-24 1861.59,-12 1861.59,-12 1861.59,-6 1867.59,0 1873.59,0 1873.59,0 1903.59,0 1903.59,0 1909.59,0 1915.59,-6 1915.59,-12 1915.59,-12 1915.59,-24 1915.59,-24 1915.59,-30 1909.59,-36 1903.59,-36"/>
<text text-anchor="middle" x="1888.59" y="-13.8" font-family="Helvetica,sans-Serif" font-size="14.00">(...)</text>
</g>
<!-- 389&#45;&gt;390 -->
<g id="edge48" class="edge">
<title>389&#45;&gt;390</title>
<path fill="none" stroke="black" d="M1913.2,-71.64C1909.31,-63.31 1904.94,-53.97 1900.97,-45.48"/>
<polygon fill="black" stroke="black" points="1904.12,-43.95 1896.71,-36.38 1897.78,-46.92 1904.12,-43.95"/>
</g>
<!-- 393 -->
<g id="node50" class="node">
<title>393</title>
<path fill="#c0c0c0" stroke="black" d="M1975.59,-36C1975.59,-36 1945.59,-36 1945.59,-36 1939.59,-36 1933.59,-30 1933.59,-24 1933.59,-24 1933.59,-12 1933.59,-12 1933.59,-6 1939.59,0 1945.59,0 1945.59,0 1975.59,0 1975.59,0 1981.59,0 1987.59,-6 1987.59,-12 1987.59,-12 1987.59,-24 1987.59,-24 1987.59,-30 1981.59,-36 1975.59,-36"/>
<text text-anchor="middle" x="1960.59" y="-13.8" font-family="Helvetica,sans-Serif" font-size="14.00">(...)</text>
</g>
<!-- 389&#45;&gt;393 -->
<g id="edge49" class="edge">
<title>389&#45;&gt;393</title>
<path fill="none" stroke="black" d="M1935.98,-71.64C1939.87,-63.31 1944.24,-53.97 1948.2,-45.48"/>
<polygon fill="black" stroke="black" points="1951.4,-46.92 1952.46,-36.38 1945.06,-43.95 1951.4,-46.92"/>
</g>
<!-- 395 -->
<g id="node52" class="node">
<title>395</title>
<path fill="#e78d4b" stroke="black" d="M2139.48,-115C2139.48,-115 2023.7,-115 2023.7,-115 2017.7,-115 2011.7,-109 2011.7,-103 2011.7,-103 2011.7,-91 2011.7,-91 2011.7,-85 2017.7,-79 2023.7,-79 2023.7,-79 2139.48,-79 2139.48,-79 2145.48,-79 2151.48,-85 2151.48,-91 2151.48,-91 2151.48,-103 2151.48,-103 2151.48,-109 2145.48,-115 2139.48,-115"/>
<text text-anchor="middle" x="2081.59" y="-99.8" font-family="Helvetica,sans-Serif" font-size="14.00">samples = 0.5%</text>
<text text-anchor="middle" x="2081.59" y="-85.8" font-family="Helvetica,sans-Serif" font-size="14.00">value = 34996296.0</text>
</g>
<!-- 394&#45;&gt;395 -->
<g id="edge51" class="edge">
<title>394&#45;&gt;395</title>
<path fill="none" stroke="black" d="M2081.59,-157.7C2081.59,-147.56 2081.59,-135.74 2081.59,-125.3"/>
<polygon fill="black" stroke="black" points="2085.09,-125.05 2081.59,-115.05 2078.09,-125.05 2085.09,-125.05"/>
</g>
<!-- 396 -->
<g id="node53" class="node">
<title>396</title>
<path fill="#e5823b" stroke="black" d="M2312.05,-122C2312.05,-122 2181.13,-122 2181.13,-122 2175.13,-122 2169.13,-116 2169.13,-110 2169.13,-110 2169.13,-84 2169.13,-84 2169.13,-78 2175.13,-72 2181.13,-72 2181.13,-72 2312.05,-72 2312.05,-72 2318.05,-72 2324.05,-78 2324.05,-84 2324.05,-84 2324.05,-110 2324.05,-110 2324.05,-116 2318.05,-122 2312.05,-122"/>
<text text-anchor="middle" x="2246.59" y="-106.8" font-family="Helvetica,sans-Serif" font-size="14.00">PF &lt;= 110.5</text>
<text text-anchor="middle" x="2246.59" y="-92.8" font-family="Helvetica,sans-Serif" font-size="14.00">samples = 1.4%</text>
<text text-anchor="middle" x="2246.59" y="-78.8" font-family="Helvetica,sans-Serif" font-size="14.00">value = 38149940.667</text>
</g>
<!-- 394&#45;&gt;396 -->
<g id="edge52" class="edge">
<title>394&#45;&gt;396</title>
<path fill="none" stroke="black" d="M2128.87,-157.93C2148.03,-148.18 2170.31,-136.83 2190.3,-126.66"/>
<polygon fill="black" stroke="black" points="2191.97,-129.73 2199.3,-122.07 2188.8,-123.49 2191.97,-129.73"/>
</g>
<!-- 397 -->
<g id="node54" class="node">
<title>397</title>
<path fill="#c0c0c0" stroke="black" d="M2225.59,-36C2225.59,-36 2195.59,-36 2195.59,-36 2189.59,-36 2183.59,-30 2183.59,-24 2183.59,-24 2183.59,-12 2183.59,-12 2183.59,-6 2189.59,0 2195.59,0 2195.59,0 2225.59,0 2225.59,0 2231.59,0 2237.59,-6 2237.59,-12 2237.59,-12 2237.59,-24 2237.59,-24 2237.59,-30 2231.59,-36 2225.59,-36"/>
<text text-anchor="middle" x="2210.59" y="-13.8" font-family="Helvetica,sans-Serif" font-size="14.00">(...)</text>
</g>
<!-- 396&#45;&gt;397 -->
<g id="edge53" class="edge">
<title>396&#45;&gt;397</title>
<path fill="none" stroke="black" d="M2235.2,-71.64C2231.31,-63.31 2226.94,-53.97 2222.97,-45.48"/>
<polygon fill="black" stroke="black" points="2226.12,-43.95 2218.71,-36.38 2219.78,-46.92 2226.12,-43.95"/>
</g>
<!-- 398 -->
<g id="node55" class="node">
<title>398</title>
<path fill="#c0c0c0" stroke="black" d="M2297.59,-36C2297.59,-36 2267.59,-36 2267.59,-36 2261.59,-36 2255.59,-30 2255.59,-24 2255.59,-24 2255.59,-12 2255.59,-12 2255.59,-6 2261.59,0 2267.59,0 2267.59,0 2297.59,0 2297.59,0 2303.59,0 2309.59,-6 2309.59,-12 2309.59,-12 2309.59,-24 2309.59,-24 2309.59,-30 2303.59,-36 2297.59,-36"/>
<text text-anchor="middle" x="2282.59" y="-13.8" font-family="Helvetica,sans-Serif" font-size="14.00">(...)</text>
</g>
<!-- 396&#45;&gt;398 -->
<g id="edge54" class="edge">
<title>396&#45;&gt;398</title>
<path fill="none" stroke="black" d="M2257.98,-71.64C2261.87,-63.31 2266.24,-53.97 2270.2,-45.48"/>
<polygon fill="black" stroke="black" points="2273.4,-46.92 2274.46,-36.38 2267.06,-43.95 2273.4,-46.92"/>
</g>
</g>
</svg>